Coordinates
version=1
nRows=24
nColumns=22
inDegrees=yes

Units are S.I. units (second, meters, Newtons, ...)
If the header above contains a line with 'inDegrees', this indicates whether rotational values are in degrees (yes) or radians (no).

endheader
time	pelvis_tilt	pelvis_list	pelvis_rotation	pelvis_tx	pelvis_ty	pelvis_tz	hip_flexion_r	hip_adduction_r	hip_rotation_r	knee_angle_r	ankle_angle_r	subtalar_angle_r	hip_flexion_l	hip_adduction_l	hip_rotation_l	knee_angle_l	ankle_angle_l	subtalar_angle_l	lumbar_extension	lumbar_bending	lumbar_rotation
      2.55000000	     -4.52503458	     -2.40138066	     -2.84617367	      0.18687272	      0.93469909	     -0.21404206	      8.14638906	      6.86945357	      0.30597209	    -26.22395735	     17.55693843	     -6.31602272	     33.37998992	     -7.63152293	     -2.83265365	    -41.50148902	      7.06037011	     -0.20486771	    -11.14459387	      1.11766390	      6.15944392
      2.56000000	     -4.51593529	     -2.41012811	     -2.78714558	      0.17997921	      0.93594424	     -0.21306044	      8.43133354	      6.95148264	      0.18898322	    -25.88985695	     17.18169268	     -6.40752162	     32.96550278	     -7.72738008	     -2.84489438	    -43.35666116	      7.71844481	     -0.35736907	    -11.09735741	      1.09308800	      6.02673305
      2.57000000	     -4.54559432	     -2.41628605	     -2.73998677	      0.17312395	      0.93708922	     -0.21218585	      8.76085473	      7.01137005	      0.04016442	    -25.56504365	     16.79006247	     -6.46686374	     32.50202331	     -7.78682479	     -2.83534325	    -45.12442689	      8.30250754	     -0.41127864	    -11.00506988	      1.08082140	      5.88917161
      2.58000000	     -4.60164311	     -2.41807730	     -2.70382427	      0.16630532	      0.93813265	     -0.21140089	      9.12275485	      7.05353418	     -0.11546272	    -25.25415381	     16.39490909	     -6.47838234	     31.97408616	     -7.80359569	     -2.79832598	    -46.78836511	      8.81688365	     -0.37895620	    -10.88221466	      1.07226922	      5.74343576
      2.59000000	     -4.68090132	     -2.42216230	     -2.67149938	      0.15952789	      0.93906550	     -0.21071547	      9.51230296	      7.08677608	     -0.27891090	    -24.95679868	     16.00003945	     -6.44651082	     31.38284612	     -7.78170977	     -2.73102592	    -48.34048438	      9.25931284	     -0.25317182	    -10.73260915	      1.07867753	      5.58671780
      2.60000000	     -4.78086445	     -2.41573645	     -2.65011592	      0.15278476	      0.93987488	     -0.21010301	      9.93628686	      7.10091131	     -0.44574236	    -24.68959812	     15.61353153	     -6.36770404	     30.72428851	     -7.71544628	     -2.65123671	    -49.76949624	      9.63095258	      0.01158347	    -10.55736494	      1.08031827	      5.42285695
      2.61000000	     -4.87682195	     -2.43672200	     -2.62377675	      0.14607376	      0.94058297	     -0.20959274	     10.35108891	      7.14048760	     -0.58580184	    -24.42411855	     15.24324089	     -6.27871950	     29.98158495	     -7.63853884	     -2.53954268	    -51.07453699	      9.93553599	      0.19473365	    -10.38943311	      1.12808939	      5.23418846
      2.62000000	     -4.99186906	     -2.44321713	     -2.60941375	      0.13937007	      0.94115733	     -0.20913464	     10.80866538	      7.16078338	     -0.72179146	    -24.20192246	     14.88701700	     -6.15070368	     29.17458032	     -7.52937107	     -2.43900900	    -52.23837499	     10.18166234	      0.54139038	    -10.19920179	      1.16290552	      5.04117584
      2.63000000	     -5.09955614	     -2.49099197	     -2.57703070	      0.13268414	      0.94162294	     -0.20877547	     11.25813976	      7.21959146	     -0.86322340	    -23.98406608	     14.53692455	     -6.05225566	     28.29397296	     -7.43991867	     -2.32204784	    -53.27279794	     10.34642392	      0.77807754	    -10.01935203	      1.25792041	      4.81924544
      2.64000000	     -5.21447746	     -2.53765885	     -2.55025903	      0.12599189	      0.94196935	     -0.20848305	     11.73710456	      7.27352348	     -0.99982862	    -23.80545088	     14.20522563	     -5.92779741	     27.34682038	     -7.34463000	     -2.22905416	    -54.15758851	     10.45693246	      1.13808953	     -9.83228733	      1.35882638	      4.58893374
      2.65000000	     -5.32933648	     -2.59886432	     -2.52381941	      0.11929655	      0.94221040	     -0.20825100	     12.23191703	      7.34082696	     -1.13157230	    -23.65570661	     13.88696713	     -5.80316544	     26.33161487	     -7.26591911	     -2.16342578	    -54.88938451	     10.49052711	      1.49321418	     -9.64540733	      1.48300043	      4.34994543
      2.66000000	     -5.44393513	     -2.67506399	     -2.49488840	      0.11258361	      0.94234655	     -0.20807997	     12.74470781	      7.41937838	     -1.27022137	    -23.53644468	     13.58194373	     -5.67243152	     25.25904752	     -7.20736357	     -2.12563831	    -55.47204287	     10.45184485	      1.87239850	     -9.46167169	      1.62860175	      4.10063527
      2.67000000	     -5.55882051	     -2.76762197	     -2.46588691	      0.10584943	      0.94238099	     -0.20797178	     13.28080972	      7.50926653	     -1.42297574	    -23.45546345	     13.29893625	     -5.52593407	     24.13315082	     -7.17234684	     -2.11883166	    -55.89926633	     10.34726440	      2.28739952	     -9.27933088	      1.79859874	      3.84556476
      2.68000000	     -5.67885002	     -2.87439285	     -2.43265704	      0.09909509	      0.94230883	     -0.20792873	     13.84455332	      7.60708529	     -1.58739215	    -23.41219295	     13.04523577	     -5.36414508	     22.96672671	     -7.15518952	     -2.13595815	    -56.16987272	     10.18279160	      2.71728469	     -9.09240637	      1.98910238	      3.58511260
      2.69000000	     -5.80268557	     -2.99095613	     -2.39652337	      0.09229868	      0.94213148	     -0.20794837	     14.44168384	      7.70754363	     -1.77031068	    -23.41631224	     12.80795164	     -5.17692512	     21.77028414	     -7.14813238	     -2.17501703	    -56.29035487	      9.97833526	      3.17693959	     -8.90430263	      2.19255605	      3.32231086
      2.70000000	     -5.93935512	     -3.10305946	     -2.34110615	      0.08546105	      0.94185417	     -0.20805711	     15.06930010	      7.79775284	     -1.93460099	    -23.44559424	     12.56556744	     -5.01219799	     20.56232755	     -7.11934266	     -2.20380989	    -56.25450841	      9.71379755	      3.60704401	     -8.70340832	      2.39614779	      3.01564879
      2.71000000	     -6.07082165	     -3.22822989	     -2.29413247	      0.07857584	      0.94146544	     -0.20819809	     15.73650204	      7.89415621	     -2.12273672	    -23.55289491	     12.37126371	     -4.76596390	     19.32889711	     -7.10222478	     -2.24622213	    -56.07824826	      9.54899062	      4.19208479	     -8.51400748	      2.60951242	      2.74072177
      2.72000000	     -6.20701207	     -3.32460899	     -2.20902652	      0.07161188	      0.94099683	     -0.20848256	     16.43972322	      7.94858276	     -2.28978642	    -23.70545709	     12.16514411	     -4.59738098	     18.09993347	     -7.00895694	     -2.22935309	    -55.75220548	      9.34551945	      4.70165337	     -8.32371976	      2.79772832	      2.40394421
      2.73000000	     -6.34000377	     -3.41666475	     -2.12088329	      0.06458317	      0.94042880	     -0.20882367	     17.18296791	      7.99301150	     -2.45017492	    -23.92942852	     11.97975302	     -4.40292865	     16.86808288	     -6.88746219	     -2.18133930	    -55.29140545	      9.25757282	      5.31970777	     -8.14439434	      2.97605802	      2.07230079
      2.74000000	     -6.46836492	     -3.49675500	     -2.01448814	      0.05747976	      0.93977087	     -0.20927122	     17.96673166	      8.01472571	     -2.59916083	    -24.22543660	     11.81443366	     -4.20897367	     15.64764576	     -6.71700106	     -2.07473814	    -54.70363348	      9.23838632	      5.97525306	     -7.97510324	      3.14276297	      1.72566360
      2.75000000	     -6.59022804	     -3.58087611	     -1.89876645	      0.05031576	      0.93903152	     -0.20978683	     18.78394882	      8.03261230	     -2.74856549	    -24.58314067	     11.64255224	     -3.98930021	     14.44174067	     -6.53297581	     -1.93136490	    -53.99313538	      9.29723319	      6.71634685	     -7.81790456	      3.30970826	      1.38597998
      2.76000000	     -6.69600629	     -3.63462475	     -1.75255957	      0.04305336	      0.93824090	     -0.21043878	     19.62519750	      8.00905861	     -2.86300889	    -24.99989457	     11.45482398	     -3.80850836	     13.24849080	     -6.26394445	     -1.68052281	    -53.15384093	      9.37439350	      7.39867381	     -7.68776194	      3.44421953	      1.00810722
      2.77000000	     -6.77982651	     -3.67907248	     -1.58268317	      0.03571391	      0.93739654	     -0.21119201	     20.47739187	      7.96507664	     -2.96982105	    -25.46603151	     11.26372372	     -3.65916199	     12.06581179	     -5.95354743	     -1.34192776	    -52.19319319	      9.46027417	      8.06450533	     -7.58876693	      3.56410691	      0.62889514
      2.78000000	     -6.83794107	     -3.71851188	     -1.38700258	      0.02832143	      0.93650816	     -0.21203844	     21.32486857	      7.90305272	     -3.08175815	    -25.96285211	     11.07222770	     -3.55757267	     10.89270122	     -5.63060201	     -0.95173185	    -51.11180600	      9.51784980	      8.66960843	     -7.52083185	      3.67720118	      0.21954767
